<svg width="18" height="16" viewBox="0 0 18 16" fill="none" xmlns="http://www.w3.org/2000/svg">
<g id="Twitter">
<path id="Twitter_2" d="M0 13.7067C1.93756 13.8178 3.63187 13.3564 5.28425 12.1347C3.6151 11.8442 2.4576 11.0667 1.82852 9.46054C2.31501 9.39219 2.74278 9.52035 3.24605 9.3153C1.60206 8.58055 0.536815 7.47842 0.494876 5.57318C1.01491 5.6159 1.40914 5.96619 2.02983 5.91493C0.520043 4.41125 0.0587139 2.77087 1.00652 0.7802C2.58341 2.62563 4.42871 3.88154 6.685 4.47105C6.81082 4.50523 6.92824 4.5394 7.05405 4.56503C7.6328 4.70173 8.3206 4.99222 8.67288 4.9495C9.2768 4.87261 8.67289 4.16348 8.82387 3.24077C9.30196 0.370105 12.4054 -0.937073 14.7036 0.746025C15.3747 1.24156 15.9031 1.23301 16.5657 0.933985C16.9096 0.7802 17.2619 0.626414 17.6729 0.446998C17.5806 1.26719 16.9599 1.72 16.4651 2.3266C17.027 2.45475 17.48 2.29243 18 2.12155C17.8239 2.71106 17.3877 3.04427 16.9935 3.36892C16.5825 3.70213 16.4231 4.05242 16.4063 4.59921C16.1547 12.878 6.91986 19.2772 0.60392 14.1852C-0.00838157 13.6896 0.587139 14.1852 0 13.7067Z" fill="#28424D"/>
</g>
</svg>
