<svg width="19" height="16" viewBox="0 0 19 16" fill="none" xmlns="http://www.w3.org/2000/svg">
<g id="Group">
<path id="Vector" d="M15.7998 0.917514C15.7998 0.420339 15.3915 0 14.8989 0H4.09627C3.60807 0 3.19531 0.415819 3.19531 0.917514V2.62147H15.7998V0.917514Z" fill="#28424D"/>
<path id="Vector_2" d="M1.33146 11.8418H2.9736V8.42935C2.9736 8.18076 3.18664 7.95477 3.43518 7.95477H15.5648C15.8089 7.95477 16.0264 8.17624 16.0264 8.42935V11.8418H17.6685C18.4008 11.8418 19 11.2271 19 10.4768V4.88584C19 4.14008 18.4008 3.52539 17.6685 3.52539H16.235H2.76501H1.33146C0.599159 3.52539 0 4.13556 0 4.88584V10.4813C0 11.2271 0.599159 11.8418 1.33146 11.8418Z" fill="#28424D"/>
<path id="Vector_3" d="M3.85938 15.9999H15.1324V12.2846V8.85864H3.85938V12.2846V15.9999ZM6.25157 10.7569H9.18967C9.43377 10.7569 9.63349 10.9603 9.63349 11.2089C9.63349 11.4575 9.43377 11.6609 9.18967 11.6609H6.25157C6.00747 11.6609 5.80775 11.4575 5.80775 11.2089C5.80775 10.9603 6.00747 10.7569 6.25157 10.7569ZM6.25157 13.1976H12.7402C12.9843 13.1976 13.1841 13.401 13.1841 13.6496C13.1841 13.8982 12.9843 14.1016 12.7402 14.1016H6.25157C6.00747 14.1016 5.80775 13.8982 5.80775 13.6496C5.80775 13.401 6.00747 13.1976 6.25157 13.1976Z" fill="#28424D"/>
</g>
</svg>
