<svg width="22" height="16" viewBox="0 0 22 16" fill="none" xmlns="http://www.w3.org/2000/svg">
<g id="Frame 121">
<g id="Group">
<path id="Vector" fill-rule="evenodd" clip-rule="evenodd" d="M6.36719 0H18.9988V12.5915H16.2719V4.73183C16.2719 4.17043 16.0714 3.64912 15.6704 3.28822C15.3095 2.92732 14.7882 2.68672 14.2669 2.68672H6.36719V0ZM14.9486 12.5915H6.36719V4.05013H14.2669C14.4273 4.05013 14.5877 4.13033 14.7481 4.25063C14.8684 4.37093 14.9486 4.53133 14.9486 4.73183V12.5915Z" fill="#28424D"/>
<path id="Vector_2" d="M14.2682 3.36841H4.36341C3.61042 3.36841 3 3.97883 3 4.73182V14.6366C3 15.3896 3.61042 16 4.36341 16H14.2682C15.0212 16 15.6316 15.3896 15.6316 14.6366V4.73182C15.6316 3.97883 15.0212 3.36841 14.2682 3.36841Z" fill="#28424D"/>
</g>
</g>
</svg>
