<?xml version="1.0" encoding="utf-8"?>
<!-- Generator: Adobe Illustrator 24.1.2, SVG Export Plug-In . SVG Version: 6.00 Build 0)  -->
<svg version="1.1" id="Layer_1" xmlns="http://www.w3.org/2000/svg" xmlns:xlink="http://www.w3.org/1999/xlink" x="0px" y="0px"
	 viewBox="0 0 22 16" style="enable-background:new 0 0 22 16;" xml:space="preserve">
<style type="text/css">
	.st0{fill-rule:evenodd;clip-rule:evenodd;}
</style>
<g id="Frame_121">
	<g id="Group">
		<path id="Vector" class="st0" d="M6.4,0H19v12.6h-2.7V4.7c0-0.6-0.2-1.1-0.6-1.4c-0.4-0.4-0.9-0.6-1.4-0.6H6.4V0z M14.9,12.6H6.4
			V4.1h7.9c0.2,0,0.3,0.1,0.5,0.2c0.1,0.1,0.2,0.3,0.2,0.5V12.6z"/>
		<path id="Vector_2" d="M14.3,3.4H4.4C3.6,3.4,3,4,3,4.7v9.9C3,15.4,3.6,16,4.4,16h9.9c0.8,0,1.4-0.6,1.4-1.4V4.7
			C15.6,4,15,3.4,14.3,3.4z"/>
	</g>
</g>
</svg>
