<svg width="16" height="16" viewBox="0 0 16 16" fill="none" xmlns="http://www.w3.org/2000/svg">
<g id="Whatsapp">
<path id="Vector" d="M15.3737 4.60328C14.9693 3.70492 14.3888 2.89836 13.6517 2.20328C12.9147 1.51475 12.0602 0.970492 11.1079 0.590164C10.123 0.196721 9.07941 0 8.00319 0C6.92697 0 5.88335 0.196721 4.89845 0.590164C3.94615 0.970492 3.0917 1.5082 2.35465 2.20328C1.6176 2.89836 1.0371 3.70492 0.632701 4.60328C0.215257 5.53443 0 6.53115 0 7.5541C0 9.34426 0.665294 11.0623 1.88501 12.4262L1.23276 16L4.70277 14.4459C5.73986 14.8918 6.84217 15.1148 7.99666 15.1148C9.07288 15.1148 10.1165 14.918 11.1014 14.5246C12.0537 14.1443 12.9082 13.6066 13.6452 12.9115C14.3823 12.2164 14.9628 11.4098 15.3672 10.5115C15.7846 9.58033 15.9999 8.58361 15.9999 7.56066C16.0064 6.53115 15.7911 5.54098 15.3737 4.60328Z" fill="#28424D"/>
<path id="Vector_2" d="M11.2513 9.06221C10.9122 8.89171 10.6643 8.7868 10.4882 8.72122C10.3773 8.68188 10.1164 8.56385 10.0251 8.63598C9.73811 8.87204 9.43155 9.54089 9.10542 9.66548C8.29662 9.50811 7.54653 8.95073 6.9595 8.38024C6.6986 8.13106 6.21593 7.42286 6.11157 7.2327C6.092 7.03598 6.44421 6.77368 6.52248 6.62286C6.92688 6.16385 6.62033 5.87532 6.56815 5.68516C6.47683 5.48844 6.3203 5.13434 6.18332 4.84581C6.06592 4.65565 6.0398 4.37368 5.83108 4.26876C4.94401 3.80975 4.43528 4.72778 4.22656 5.20647C2.9677 8.25565 10.5339 14.0589 12.0732 10.0589C12.1515 9.71139 12.1188 9.58024 12.0014 9.42286C11.7666 9.25893 11.4927 9.1868 11.2513 9.06221Z" fill="white"/>
</g>
</svg>
