<svg width="22" height="16" viewBox="0 0 22 16" fill="none" xmlns="http://www.w3.org/2000/svg">
<g id="Frame 120">
<path id="Vector" fill-rule="evenodd" clip-rule="evenodd" d="M21.8138 1.46494L12.5094 9.36014C11.6349 10.1018 10.3651 10.1018 9.49064 9.36014L0.186214 1.46494C0.0644282 1.75777 0 2.07541 0 2.40024C0 5.17092 0 10.8291 0 13.5998C0 14.2366 0.248284 14.8471 0.690641 15.2967C1.13221 15.7472 1.73171 16 2.35714 16H19.6429C20.2683 16 20.8678 15.7472 21.3094 15.2967C21.7517 14.8471 22 14.2366 22 13.5998V2.40024C22 2.07541 21.9356 1.75777 21.8138 1.46494ZM1.24771 0.282426L10.4971 8.13121C10.7886 8.37843 11.2114 8.37843 11.5029 8.13121L20.7523 0.282426C20.4136 0.0984073 20.0334 0 19.6429 0H2.35714C1.96664 0 1.58636 0.0984073 1.24771 0.282426Z" fill="#28424D"/>
</g>
</svg>
