<svg xmlns="http://www.w3.org/2000/svg" viewBox="0 0 19.62 22.55"><defs><style>.cls-1{fill:#fff;}</style></defs><g id="Layer_2" data-name="Layer 2"><g id="Layer_1-2" data-name="Layer 1"><path class="cls-1" d="M13.34,16.23c-.07.08-.12.17-.28.07q-2.89-1.8-5.8-3.59a.17.17,0,0,1-.08-.24,3.51,3.51,0,0,0,0-2.35.19.19,0,0,1,.1-.27L13,6.29a.21.21,0,0,1,.31,0,3.56,3.56,0,0,0,3.09,1,3.71,3.71,0,0,0,3.18-3.44A3.71,3.71,0,0,0,17,.2c-.23-.08-.47-.12-.71-.18a4.71,4.71,0,0,0-.84,0l-.28.07a3.69,3.69,0,0,0-2.78,4.79c0,.12,0,.18-.08.26L6.56,8.72c-.11.07-.16.06-.25,0A3.65,3.65,0,0,0,3.24,7.63,3.69,3.69,0,0,0,.07,12a3.56,3.56,0,0,0,2.52,2.81,3.56,3.56,0,0,0,3.71-.9c.1-.1.16-.11.27,0l5.77,3.58a.19.19,0,0,1,.1.26,3.51,3.51,0,0,0-.15,1.79,3.69,3.69,0,1,0,1.05-3.25ZM15.93,1.37a2.34,2.34,0,1,1-2.34,2.32A2.33,2.33,0,0,1,15.93,1.37ZM3.69,13.62A2.34,2.34,0,1,1,6,11.3,2.34,2.34,0,0,1,3.69,13.62ZM15.92,21.2a2.34,2.34,0,1,1,2.35-2.32A2.33,2.33,0,0,1,15.92,21.2Z"/></g></g></svg>