<svg width="16" height="16" viewBox="0 0 16 16" fill="none" xmlns="http://www.w3.org/2000/svg">
<g id="LinkedIn">
<path id="Vector" d="M3.61282 5.26147H0.269531V15.923H3.61282V5.26147Z" fill="#28424D"/>
<path id="Vector_2" d="M12.6583 5.03036C12.5351 5.01495 12.4041 5.00725 12.2732 4.99954C10.4012 4.92251 9.34587 6.0318 8.9761 6.50941C8.87596 6.64037 8.82973 6.71741 8.82973 6.71741V5.29227H5.63281V15.9538H8.82973H8.9761C8.9761 14.8676 8.9761 13.7892 8.9761 12.703C8.9761 12.1175 8.9761 11.532 8.9761 10.9466C8.9761 10.2225 8.92218 9.45212 9.28424 8.78963C9.59238 8.23498 10.147 7.95766 10.771 7.95766C12.6198 7.95766 12.6583 9.6293 12.6583 9.78337C12.6583 9.79107 12.6583 9.79878 12.6583 9.79878V16H16.0016V9.04384C16.0016 6.66348 14.7922 5.26146 12.6583 5.03036Z" fill="#28424D"/>
<path id="Vector_3" d="M1.94126 3.88253C3.01339 3.88253 3.88253 3.01339 3.88253 1.94126C3.88253 0.869133 3.01339 0 1.94126 0C0.869129 0 0 0.869133 0 1.94126C0 3.01339 0.869129 3.88253 1.94126 3.88253Z" fill="#28424D"/>
</g>
</svg>
